<svg width="54" height="48" viewBox="0 0 54 48" fill="none" xmlns="http://www.w3.org/2000/svg">
<path d="M12.1583 26.6953C17.0501 26.3227 17.8468 29.9107 19.6179 32.0429C16.7839 33.891 12.8356 38.368 9.1211 37.1275C5.40658 35.887 1.13188 31.1897 0.000699132 29.4622C1.21395 28.5535 7.26652 27.0679 12.1583 26.6953Z" fill="#FFD360"/>
<path d="M9.12101 37.1277C5.40649 35.8871 1.13179 31.1898 0.000610352 29.4624L18.716 32.44C16.8321 34.5296 12.2758 38.3923 9.12101 37.1277Z" fill="#EFB211"/>
<path d="M28.4984 1.45893C32.5339 -1.62428 34.8735 1.01195 37.379 1.84505C35.7935 5.03541 34.4615 11.1152 30.6956 12.1466C26.9297 13.1779 21.0878 11.5515 19.3184 10.7054C19.9431 9.23914 24.4635 4.54279 28.4984 1.45893Z" fill="#E2DB54"/>
<path d="M29.4521 0.833067C26.0536 2.90375 20.1129 8.78299 19.332 10.7336L38.0666 2.52225C35.8308 0.913581 32.2991 -1.13318 29.4521 0.833067Z" fill="#D1CE4F"/>
<path d="M14.3549 37.9463C12.445 41.3768 13.9282 45.8802 14.5893 47.9986C16.669 46.6428 20.3252 43.7241 20.8662 40.5297C21.4077 37.3354 20.2625 33.547 19.6226 32.052C18.6624 32.5873 16.2648 34.515 14.3549 37.9463Z" fill="#FFD360"/>
<path d="M14.5893 47.9989C16.6696 46.6431 20.3247 43.7244 20.8662 40.53C21.0185 38.4697 21.1531 34.4789 19.8314 32.5935C18.5097 30.7087 15.7326 41.878 14.5893 47.9989Z" fill="#EFB211"/>
<path d="M35.8222 25.9128C32.6148 27.8189 31.8562 32.5376 31.4662 34.7377C33.8803 34.7201 38.3657 34.228 40.2827 31.7663C42.1996 29.3045 42.9275 25.3907 43.052 23.7423C41.9786 23.6718 39.0296 24.0066 35.8222 25.9128Z" fill="#FFD360"/>
<path d="M32.4954 34.9539C34.896 34.6693 39.3142 33.683 40.9994 31.0214C41.9066 29.2144 43.5181 25.6408 43.018 23.3199C42.5179 20.999 35.8209 29.9023 32.4954 34.9539Z" fill="#EFB211"/>
<path d="M52.5632 5.17717C37.7557 -11.897 17.0663 18.8594 18.824 32.7544C18.8281 32.7871 18.8452 32.8119 18.8723 32.825C27.8012 37.0223 61.2892 25.1529 52.5632 5.17717Z" fill="#2B4CC1"/>
<path d="M30.2216 6.53681C19.961 17.8932 18.475 27.5786 18.8429 32.7537C30.3832 23.9421 52.4995 5.0863 52.3326 4.88784C46.9226 -1.53626 37.8037 -1.8558 30.2216 6.53681Z" fill="#3D59BF"/>
<path d="M42.2775 11.7045C40.2628 8.15887 41.6608 2.27686 42.9136 0.19762L41.468 0.171459C39.3406 2.35121 38.2386 9.49646 40.9132 13.4749C43.2652 16.9736 49.356 18.3284 52.5144 18.2352L53.0795 16.4582C50.0296 16.1577 44.2921 15.2508 42.2775 11.7045Z" fill="#E0DB54"/>
<path d="M23.4069 27.3561C21.3923 23.8098 21.784 21.0189 22.0011 18.5884L21.068 20.8701C20.0587 23.9051 21.8474 28.4613 23.5749 30.0634C25.303 31.6661 27.1838 33.2565 30.2897 32.816L32.1375 32.4028C29.0877 32.1024 25.4215 30.9017 23.4069 27.3561Z" fill="#FFD360"/>
<path d="M35.2315 17.4441C33.2169 13.8978 32.7306 5.63487 33.9834 3.55628L31.7987 4.98069C29.6712 7.16044 29.3478 14.5192 32.6334 19.1381C35.919 23.7571 42.6521 25.8692 45.8099 25.776L48.5148 23.5721C45.4649 23.2717 37.2461 20.9897 35.2315 17.4441Z" fill="#FFD360"/>
<path d="M29.2732 23.883C26.4381 21.109 24.8442 13.4191 26.097 11.3399L24.1948 14.3416C24.069 18.7378 24.8162 22.5027 27.7214 25.5992C30.8472 28.9314 31.9867 28.9804 36.2025 31.0735L40.5305 29.0434C37.5214 29.0687 33.7544 28.2676 29.2732 23.883Z" fill="#E0DB54"/>
<path d="M44.7984 8.52054C45.5574 9.94638 47.2165 10.4211 48.5047 9.58089C49.7929 8.74072 50.2223 6.90428 49.4633 5.47844C48.7043 4.0526 47.0451 3.57858 45.757 4.4181C44.4688 5.25826 44.0394 7.0947 44.7984 8.52054Z" fill="white"/>
<path d="M46.2729 8.15352C46.7724 9.09232 47.8246 9.42988 48.6238 8.90894C49.4224 8.388 49.6655 7.20505 49.1659 6.26689C48.6664 5.32809 47.6142 4.98988 46.815 5.51082C46.0164 6.03176 45.7733 7.21471 46.2729 8.15352Z" fill="black"/>
<path d="M46.274 7.55797C46.5188 8.01823 47.0614 8.1671 47.4855 7.89096C47.909 7.61482 48.0541 7.01747 47.8093 6.55721C47.5646 6.09694 47.0226 5.94808 46.5985 6.22421C46.1744 6.50035 46.0293 7.0977 46.274 7.55797Z" fill="white"/>
</svg>
