<svg width="46" height="46" viewBox="0 0 46 46" fill="none" xmlns="http://www.w3.org/2000/svg">
<path d="M44.8643 1.32111C43.888 0.344786 42.305 0.344786 41.3288 1.32111L23.0928 19.5571L4.85688 1.32111C3.88058 0.344786 2.29766 0.344786 1.32136 1.32111C0.34503 2.29741 0.34503 3.88034 1.32136 4.85664L19.5573 23.0926L1.32141 41.3283C0.34508 42.3048 0.34508 43.8876 1.32141 44.8641C2.29771 45.8403 3.88063 45.8403 4.85693 44.8641L23.0928 26.6281L41.3288 44.8641C42.305 45.8403 43.888 45.8403 44.8643 44.8641C45.8405 43.8876 45.8405 42.3048 44.8643 41.3286L26.6283 23.0926L44.8643 4.85664C45.8405 3.88034 45.8405 2.29741 44.8643 1.32111Z" fill="#2419EE"/>
</svg>
