<svg width="12" height="13" viewBox="0 0 12 13" fill="none" xmlns="http://www.w3.org/2000/svg">
<path d="M1.5 13C1.0875 13 0.7345 12.8546 0.441 12.5639C0.147 12.2727 0 11.9229 0 11.5143V4.82857C0 4.59333 0.0532499 4.37048 0.15975 4.16C0.26575 3.94952 0.4125 3.77619 0.6 3.64L5.1 0.297143C5.2375 0.198095 5.38125 0.123809 5.53125 0.0742856C5.68125 0.0247618 5.8375 0 6 0C6.1625 0 6.31875 0.0247618 6.46875 0.0742856C6.61875 0.123809 6.7625 0.198095 6.9 0.297143L11.4 3.64C11.5875 3.77619 11.7345 3.94952 11.841 4.16C11.947 4.37048 12 4.59333 12 4.82857V11.5143C12 11.9229 11.8533 12.2727 11.5598 12.5639C11.2658 12.8546 10.9125 13 10.5 13H7.5V7.8H4.5V13H1.5Z" fill="#C5C5CC"/>
</svg>
