<svg width="12" height="13" viewBox="0 0 12 13" fill="none" xmlns="http://www.w3.org/2000/svg">
<path d="M10.7025 4.56027L7.912 1.79863L8.83123 0.878082C9.08293 0.626027 9.39219 0.5 9.75901 0.5C10.1254 0.5 10.4344 0.626027 10.6861 0.878082L11.6054 1.79863C11.8571 2.05068 11.9884 2.3549 11.9993 2.71129C12.0103 3.06723 11.8899 3.37123 11.6382 3.62329L10.7025 4.56027ZM0.656597 12.5C0.470561 12.5 0.314729 12.4369 0.1891 12.3106C0.0630334 12.1848 0 12.0288 0 11.8425V9.98493C0 9.89726 0.016415 9.81244 0.0492448 9.73047C0.0820747 9.64805 0.131319 9.57397 0.196979 9.50822L6.95993 2.73562L9.75047 5.53014L2.98752 12.3027C2.92186 12.3685 2.8481 12.4178 2.76624 12.4507C2.68395 12.4836 2.59903 12.5 2.51148 12.5H0.656597Z" fill="#060077"/>
</svg>
