<svg width="7" height="13" viewBox="0 0 7 13" fill="none" xmlns="http://www.w3.org/2000/svg">
<path d="M2.82115 6.71803C3.30068 5.85238 4.22238 5.3417 4.75796 4.5757C5.32469 3.77232 5.00707 2.27145 3.40033 2.27145C2.34784 2.27145 1.83094 3.06859 1.61297 3.72873L0 3.04991C0.442167 1.72341 1.64411 0.58374 3.3941 0.58374C4.85761 0.58374 5.86027 1.2501 6.37094 2.08462C6.80688 2.8008 7.06221 4.13976 6.38962 5.13619C5.6423 6.23849 4.92611 6.57479 4.53999 7.28475C4.3843 7.57122 4.32202 7.75805 4.32202 8.67975H2.52222C2.51599 8.19399 2.44126 7.40307 2.82115 6.71803ZM4.64587 11.1708C4.64587 11.8559 4.08537 12.4164 3.40033 12.4164C2.71528 12.4164 2.15478 11.8559 2.15478 11.1708C2.15478 10.4858 2.71528 9.92529 3.40033 9.92529C4.08537 9.92529 4.64587 10.4858 4.64587 11.1708Z" fill="#C5C5CC"/>
</svg>
